<svg width="21" height="21" viewBox="0 0 21 21" fill="none" xmlns="http://www.w3.org/2000/svg">
<path fill-rule="evenodd" clip-rule="evenodd" d="M0.65625 3.46875C0.65625 1.91545 1.91545 0.65625 3.46875 0.65625H17.9753C19.5286 0.65625 20.7878 1.91545 20.7878 3.46875V17.9753C20.7878 19.5286 19.5286 20.7878 17.9753 20.7878H3.46875C1.91545 20.7878 0.65625 19.5286 0.65625 17.9753V3.46875ZM10.722 13.9416C12.5002 13.9416 13.9416 12.5002 13.9416 10.722C13.9416 8.94392 12.5002 7.50247 10.722 7.50247C8.94392 7.50247 7.50247 8.94392 7.50247 10.722C7.50247 12.5002 8.94392 13.9416 10.722 13.9416ZM10.722 16.051C13.6651 16.051 16.051 13.6651 16.051 10.722C16.051 7.77894 13.6651 5.39309 10.722 5.39309C7.77894 5.39309 5.39309 7.77894 5.39309 10.722C5.39309 13.6651 7.77894 16.051 10.722 16.051ZM17.2352 5.39309C17.8892 5.39309 18.4194 4.8629 18.4194 4.20888C18.4194 3.55486 17.8892 3.02467 17.2352 3.02467C16.5812 3.02467 16.051 3.55486 16.051 4.20888C16.051 4.8629 16.5812 5.39309 17.2352 5.39309Z" fill="#313131"/>
</svg>
