<svg width="27" height="27" viewBox="0 0 27 27" fill="none" xmlns="http://www.w3.org/2000/svg">
<path fill-rule="evenodd" clip-rule="evenodd" d="M19.3796 26.5882C17.5196 26.5197 12.2483 25.7912 6.72775 20.2719C1.20846 14.7513 0.481251 9.48132 0.411501 7.62003C0.308167 4.78353 2.48075 2.02841 4.99046 0.952449C5.29268 0.821948 5.62364 0.772262 5.95085 0.808267C6.27807 0.844272 6.5903 0.964731 6.85692 1.15782C8.92358 2.66391 10.3496 4.94241 11.5741 6.73395C11.8435 7.12756 11.9587 7.60653 11.8977 8.0796C11.8367 8.55267 11.6038 8.98678 11.2434 9.2992L8.72338 11.1708C8.60163 11.2587 8.51592 11.3879 8.48219 11.5342C8.44846 11.6805 8.46898 11.8341 8.53996 11.9665C9.11088 13.0037 10.1261 14.5485 11.2886 15.711C12.4524 16.8735 14.0696 17.9559 15.1791 18.5914C15.3182 18.6695 15.482 18.6914 15.6367 18.6525C15.7914 18.6135 15.9254 18.5168 16.011 18.3822L17.6514 15.8854C17.953 15.4848 18.3979 15.2164 18.8929 15.1365C19.3879 15.0565 19.8947 15.1712 20.307 15.4566C22.1244 16.7147 24.2453 18.1161 25.7979 20.104C26.0067 20.3725 26.1395 20.6922 26.1824 21.0296C26.2254 21.3671 26.1769 21.7098 26.042 22.0221C24.9609 24.5447 22.2252 26.6928 19.3796 26.5882Z" fill="#313131"/>
</svg>
