<svg width="18" height="23" viewBox="0 0 18 23" fill="none" xmlns="http://www.w3.org/2000/svg">
<path fill-rule="evenodd" clip-rule="evenodd" d="M3.29686 10.6267L3.29685 10.6267C3.29676 10.6266 3.29657 10.6264 3.29629 10.6262C3.29666 10.6265 3.29686 10.6267 3.29686 10.6267ZM12.8202 4.17843C13.6023 4.96385 14.0615 6.06723 14.0615 7.46042C14.0615 9.72834 13.1379 13.975 10.1669 13.975C9.59238 13.975 9.06161 13.7586 8.69127 13.3882C9.06161 13.7587 9.59241 13.9751 10.167 13.9751C13.1379 13.9751 14.0616 9.72841 14.0616 7.46049C14.0616 6.06726 13.6023 4.96386 12.8202 4.17843ZM9.62493 5.70484C9.62494 5.7048 9.62495 5.70477 9.62495 5.70477H6.81246C6.81246 5.70477 6.62243 6.43633 6.37499 7.67351C6.2941 8.07796 6.19213 8.46051 6.07473 8.90091L6.07472 8.90095L6.07471 8.90096C5.9546 9.35155 5.81834 9.8627 5.672 10.5198C5.10427 13.0692 4.3446 16.5644 3.85201 19.0642C3.71415 19.7637 3.42577 20.8584 3.26445 21.4548C3.19484 21.7121 3.14889 21.8767 3.14889 21.8767H3.14897C3.15254 21.8639 3.65544 20.0621 3.85208 19.0642C4.34467 16.5645 5.10434 13.0693 5.67207 10.5199C5.81841 9.86276 5.95467 9.35161 6.07478 8.90102C6.19219 8.4606 6.29417 8.07805 6.37506 7.67358C6.6225 6.4364 6.81253 5.70484 6.81253 5.70484H9.62493ZM7.42692 14.5383C7.50313 14.6803 7.59596 14.813 7.70225 14.936C7.59596 14.813 7.50314 14.6803 7.42693 14.5382C7.42693 14.5382 7.42693 14.5383 7.42692 14.5383ZM14.9634 2.81505C13.5075 1.44945 11.4485 0.671944 9.28955 0.671944C4.85621 0.671944 0.484441 3.59437 0.484441 8.31286C0.484441 9.89486 1.07877 10.8711 1.64031 11.4404C1.07875 10.8711 0.484373 9.89485 0.484373 8.31279C0.484373 3.5943 4.85614 0.671875 9.28948 0.671875C11.4484 0.671875 13.5075 1.44941 14.9634 2.81505ZM6.48618 5.2829L6.40414 5.5987L6.40343 5.60145L6.40163 5.60844L6.39486 5.63503L6.3693 5.73739C6.34719 5.82706 6.31526 5.95901 6.27559 6.12971C6.19627 6.47107 6.08596 6.96753 5.96131 7.59077C5.88305 7.98211 5.78403 8.35354 5.66523 8.79923L5.66522 8.79925L5.663 8.80758C5.54372 9.25505 5.40694 9.76927 5.26021 10.4281C4.69235 12.9782 3.93174 16.4775 3.43809 18.9826C3.34216 19.4694 3.16933 20.1616 3.01829 20.7392C2.94318 21.0265 2.87418 21.2827 2.82395 21.4672C2.79884 21.5594 2.77845 21.6335 2.76435 21.6846L2.74813 21.7432L2.74289 21.762L2.59305 22.2985H6.32891L6.37926 21.9345L6.38055 21.9252L6.38466 21.8962L6.40133 21.7812C6.4162 21.68 6.43861 21.5305 6.46861 21.3389C6.5286 20.9557 6.6189 20.4041 6.73987 19.7319C6.947 18.5811 7.24368 17.0793 7.63162 15.4665C7.9013 15.7122 8.21337 15.9108 8.53694 16.0646C9.13701 16.3497 9.81065 16.4973 10.4132 16.4973C12.8649 16.4973 14.6506 15.3087 15.8073 13.6071C16.9543 11.92 17.4851 9.73159 17.4851 7.67351C17.4851 3.13202 13.5193 0.25 9.28948 0.25C4.71498 0.25 0.0625 3.27903 0.0625 8.31279C0.0625 9.92372 0.64012 10.9794 1.24145 11.6332C1.53882 11.9565 1.83713 12.1765 2.06384 12.3169C2.17735 12.3872 2.27353 12.4379 2.34358 12.4719C2.37863 12.4889 2.40723 12.5018 2.42829 12.5109L2.45414 12.5217L2.46259 12.5251L2.46566 12.5263L2.46794 12.5272L2.84061 12.6707L3.81142 10.5109L3.59098 10.323L3.58497 10.3142C3.56732 10.2874 3.5306 10.2238 3.48942 10.1064C3.40654 9.87004 3.30764 9.42127 3.30764 8.63243C3.30764 5.44548 5.74595 3.19424 8.95083 3.19424C10.3448 3.19424 11.5156 3.58734 12.3315 4.29854C13.1399 5.00321 13.6396 6.05413 13.6396 7.46042C13.6396 8.55152 13.4153 10.1182 12.8433 11.3958C12.2682 12.6802 11.4052 13.5531 10.1669 13.5531C9.2796 13.5531 8.58763 12.9404 8.58763 12.1028C8.58763 11.3626 8.76021 10.6924 8.9946 9.93684C9.0374 9.79888 9.08237 9.65778 9.12851 9.51305L9.12854 9.51294C9.33209 8.87439 9.55814 8.16521 9.7189 7.34355C9.79769 6.94086 9.87732 6.55328 9.9373 6.26617C9.96728 6.12269 9.99231 6.00444 10.0098 5.92214L10.0302 5.82702L10.1477 5.2829H6.48618Z" fill="#313131"/>
</svg>
