<svg width="20" height="21" viewBox="0 0 20 21" fill="none" xmlns="http://www.w3.org/2000/svg">
<path d="M15.6885 3.8102C14.8625 2.93741 14.4072 1.81654 14.4076 0.65625H10.6737V14.5247C10.6449 15.2752 10.3026 15.986 9.7188 16.5076C9.13503 17.0291 8.35537 17.3206 7.544 17.3207C5.82811 17.3207 4.40222 16.0234 4.40222 14.4128C4.40222 12.4891 6.40813 11.0464 8.47446 11.6391V8.10493C4.30555 7.59046 0.65625 10.5878 0.65625 14.4128C0.65625 18.1372 3.99137 20.7878 7.53192 20.7878C11.3262 20.7878 14.4076 17.9359 14.4076 14.4128V7.37796C15.9217 8.38437 17.7395 8.92434 19.6036 8.92138V5.46546C19.6036 5.46546 17.3319 5.56612 15.6885 3.8102Z" fill="#313131"/>
</svg>
