<svg width="27" height="17" viewBox="0 0 27 17" fill="none" xmlns="http://www.w3.org/2000/svg">
<path d="M26.8277 1.19224C26.8774 1.02882 26.9011 0.876053 26.8952 0.741053C26.8786 0.347895 26.6086 0.0625 25.9727 0.0625H23.1306C22.413 0.0625 22.0826 0.497104 21.8884 0.93171C21.8884 0.93171 20.1168 4.5779 18.0752 6.98184C17.4132 7.67816 17.0769 7.6604 16.7181 7.6604C16.5262 7.6604 16.0407 7.42829 16.0407 6.79118V1.16263C16.0407 0.409475 15.8524 0.0625 15.2461 0.0625H10.2002C9.75849 0.0625 9.52875 0.409473 9.52875 0.758815C9.52875 1.48237 10.5034 1.65645 10.6147 3.685V7.61776C10.6147 8.57342 10.4489 8.74632 10.0901 8.74632C9.12375 8.74632 7.22191 5.48974 5.94888 1.22184C5.67296 0.382237 5.39704 0.0625 4.67941 0.0625H1.81007C0.982303 0.0625 0.84375 0.468684 0.84375 0.902105C0.84375 1.68487 1.49507 5.91605 5.05007 10.7808C7.62809 14.3086 11.0244 16.3442 14.0311 16.3442C15.8524 16.3442 16.0395 15.8812 16.0395 15.1564V11.9307C16.0407 11.0614 16.2397 10.917 16.8187 10.917C17.232 10.917 18.0752 11.1882 19.7035 13.0876C21.5816 15.2784 21.9227 16.3442 22.9991 16.3442H25.8412C26.5009 16.3442 26.8798 16.0671 26.8952 15.5307C26.8988 15.3945 26.8786 15.2405 26.8348 15.07C26.624 14.4447 25.6577 12.9159 24.4534 11.4593C23.7855 10.6529 23.127 9.85355 22.8239 9.42013C22.6214 9.13711 22.5444 8.93697 22.5539 8.74632C22.5634 8.545 22.6676 8.35434 22.8239 8.0879C22.7966 8.0879 26.4689 2.93066 26.8277 1.19224Z" fill="#313131"/>
</svg>
