<svg width="28" height="29" viewBox="0 0 28 29" fill="none" xmlns="http://www.w3.org/2000/svg">
<path d="M25.1559 7.21439C21.2371 0.936886 13.2121 -0.923114 7.00586 2.97126C0.949605 6.86564 -1.00039 15.3519 2.91835 21.61L3.23711 22.1138L1.92461 27.19L6.83711 25.8338L7.32461 26.1631C9.44336 27.345 11.7496 28.0231 14.0371 28.0231C16.4934 28.0231 18.9496 27.345 21.0684 25.9888C27.1246 21.92 28.9246 13.6081 25.1559 7.17564V7.21439ZM21.7246 20.2731C21.0684 21.2806 20.2434 21.9588 19.0996 22.1331C18.4434 22.1331 17.6184 22.4625 14.3559 21.1256C11.5809 19.7694 9.27461 17.5606 7.64336 15.0225C6.66836 13.8406 6.16211 12.31 6.01211 10.7794C6.01211 9.42314 6.49961 8.24126 7.32461 7.38876C7.64336 7.05939 7.98086 6.88501 8.29961 6.88501H9.12461C9.44336 6.88501 9.78086 6.88501 9.94961 7.56314C10.2684 8.41564 11.0934 10.45 11.0934 10.6244C11.2621 10.7988 11.1871 12.0969 10.4371 12.8331C10.0246 13.3175 9.9496 13.3369 10.1184 13.6856C10.7746 14.6931 11.5996 15.72 12.4059 16.5725C13.3809 17.425 14.3746 18.1031 15.5184 18.6069C15.8371 18.7813 16.1746 18.7813 16.3434 18.4325C16.5121 18.1031 17.3184 17.2506 17.6559 16.9019C17.9746 16.5725 18.1434 16.5725 18.4809 16.7275L21.1059 18.0838C21.4246 18.2581 21.7621 18.4131 21.9309 18.5875C22.0996 19.0913 22.0996 19.7694 21.7621 20.2731H21.7246Z" fill="#313131"/>
</svg>
