<svg width="30" height="8" viewBox="0 0 30 8" fill="none" xmlns="http://www.w3.org/2000/svg">
<path d="M1 3.5C0.723858 3.5 0.5 3.72386 0.5 4C0.5 4.27614 0.723858 4.5 1 4.5L1 3.5ZM29.3536 4.35355C29.5488 4.15829 29.5488 3.84171 29.3536 3.64644L26.1716 0.464464C25.9763 0.269202 25.6597 0.269202 25.4645 0.464464C25.2692 0.659726 25.2692 0.976309 25.4645 1.17157L28.2929 4L25.4645 6.82842C25.2692 7.02369 25.2692 7.34027 25.4645 7.53553C25.6597 7.73079 25.9763 7.73079 26.1716 7.53553L29.3536 4.35355ZM1 4.5L29 4.5L29 3.5L1 3.5L1 4.5Z" fill="#16181D"/>
</svg>
