<svg width="20" height="20" viewBox="0 0 20 20" fill="none" xmlns="http://www.w3.org/2000/svg">
<g clip-path="url(#clip0_398_2524)">
<path d="M4.56736 1.65988C4.49356 1.56496 4.40042 1.48682 4.29411 1.43066C4.1878 1.3745 4.07076 1.34161 3.95075 1.33416C3.83075 1.32671 3.71054 1.34488 3.5981 1.38746C3.48566 1.43004 3.38357 1.49606 3.29861 1.58113L2.00611 2.87488C1.40236 3.47988 1.17986 4.33613 1.44361 5.08738C2.53828 8.19687 4.31897 11.02 6.65361 13.3474C8.98101 15.682 11.8041 17.4627 14.9136 18.5574C15.6649 18.8211 16.5211 18.5986 17.1261 17.9949L18.4186 16.7024C18.5037 16.6174 18.5697 16.5153 18.6123 16.4029C18.6549 16.2904 18.673 16.1702 18.6656 16.0502C18.6581 15.9302 18.6252 15.8132 18.5691 15.7069C18.5129 15.6006 18.4348 15.5074 18.3399 15.4336L15.4561 13.1911C15.3547 13.1125 15.2367 13.0579 15.1112 13.0315C14.9856 13.005 14.8556 13.0075 14.7311 13.0386L11.9936 13.7224C11.6282 13.8137 11.2454 13.8089 10.8824 13.7083C10.5194 13.6078 10.1887 13.415 9.92236 13.1486L6.85236 10.0774C6.58582 9.81118 6.39276 9.48048 6.292 9.1175C6.19123 8.75453 6.18619 8.37164 6.27736 8.00613L6.96236 5.26863C6.99349 5.14413 6.99594 5.01417 6.96952 4.88858C6.94311 4.76299 6.88851 4.64504 6.80986 4.54363L4.56736 1.65988ZM2.35486 0.63863C2.5736 0.419817 2.83639 0.250043 3.12578 0.140582C3.41517 0.0311206 3.72453 -0.0155236 4.03333 0.00374676C4.34213 0.0230171 4.6433 0.107761 4.91683 0.252351C5.19037 0.396942 5.43001 0.59807 5.61986 0.84238L7.86236 3.72488C8.27361 4.25363 8.41861 4.94238 8.25611 5.59238L7.57236 8.32988C7.537 8.47167 7.53891 8.62019 7.5779 8.76102C7.61689 8.90185 7.69162 9.03021 7.79486 9.13363L10.8661 12.2049C10.9697 12.3083 11.0982 12.3832 11.2393 12.4222C11.3804 12.4612 11.5291 12.463 11.6711 12.4274L14.4074 11.7436C14.7281 11.6634 15.0629 11.6572 15.3865 11.7254C15.71 11.7936 16.0138 11.9345 16.2749 12.1374L19.1574 14.3799C20.1936 15.1861 20.2886 16.7174 19.3611 17.6436L18.0686 18.9361C17.1436 19.8611 15.7611 20.2674 14.4724 19.8136C11.1738 18.653 8.17895 16.7647 5.70986 14.2886C3.23397 11.8199 1.34562 8.82545 0.184856 5.52738C-0.267644 4.23988 0.138606 2.85613 1.06361 1.93113L2.35611 0.63863H2.35486Z" fill="#16181D" fill-opacity="0.6"/>
</g>
<defs>
<clipPath id="clip0_398_2524">
<rect width="20" height="20" fill="white"/>
</clipPath>
</defs>
</svg>
