<svg width="14" height="14" viewBox="0 0 14 14" fill="none" xmlns="http://www.w3.org/2000/svg">
<path d="M3.19717 1.16201C3.14552 1.09557 3.08032 1.04087 3.0059 1.00156C2.93148 0.96225 2.84955 0.939222 2.76555 0.934008C2.68155 0.928794 2.5974 0.941513 2.5187 0.97132C2.43999 1.00113 2.36852 1.04734 2.30905 1.10689L1.4043 2.01251C0.981674 2.43601 0.825924 3.03539 1.01055 3.56126C1.77682 5.7379 3.02331 7.7141 4.65755 9.34326C6.28673 10.9775 8.26292 12.224 10.4395 12.9903C10.9654 13.1749 11.5648 13.0191 11.9883 12.5965L12.893 11.6918C12.9526 11.6323 12.9988 11.5608 13.0286 11.4821C13.0584 11.4034 13.0711 11.3193 13.0659 11.2353C13.0607 11.1513 13.0377 11.0693 12.9984 10.9949C12.9591 10.9205 12.9044 10.8553 12.8379 10.8036L10.8193 9.23389C10.7483 9.17883 10.6657 9.14061 10.5778 9.12212C10.4899 9.10363 10.399 9.10534 10.3118 9.12714L8.39555 9.60576C8.13977 9.66969 7.87179 9.6663 7.61771 9.59592C7.36363 9.52554 7.13211 9.39056 6.94567 9.20414L4.79667 7.05426C4.6101 6.86792 4.47496 6.63644 4.40442 6.38235C4.33389 6.12827 4.33036 5.86024 4.39417 5.60439L4.87367 3.68814C4.89547 3.60099 4.89718 3.51002 4.87869 3.42211C4.8602 3.33419 4.82198 3.25163 4.76692 3.18064L3.19717 1.16201ZM1.64842 0.447139C1.80154 0.29397 1.9855 0.175128 2.18807 0.0985051C2.39064 0.0218821 2.6072 -0.0107689 2.82336 0.00272039C3.03952 0.0162096 3.25033 0.0755304 3.44181 0.176744C3.63328 0.277957 3.80103 0.418747 3.93392 0.589764L5.50367 2.60751C5.79155 2.97764 5.89305 3.45976 5.7793 3.91476L5.30067 5.83101C5.27593 5.93026 5.27726 6.03423 5.30455 6.13281C5.33184 6.23139 5.38416 6.32124 5.45642 6.39364L7.6063 8.54351C7.67878 8.61592 7.76878 8.66833 7.86753 8.69562C7.96628 8.72292 8.07042 8.72417 8.1698 8.69926L10.0852 8.22064C10.3097 8.1645 10.5441 8.16014 10.7705 8.20789C10.997 8.25564 11.2097 8.35425 11.3924 8.49626L13.4102 10.066C14.1355 10.6304 14.202 11.7023 13.5528 12.3506L12.648 13.2554C12.0005 13.9029 11.0328 14.1873 10.1307 13.8696C7.82171 13.0572 5.72529 11.7354 3.99692 10.0021C2.2638 8.27403 0.941956 6.17792 0.129424 3.86926C-0.187326 2.96801 0.0970488 1.99939 0.744549 1.35189L1.6493 0.447139H1.64842Z" fill="#747474"/>
</svg>
