<svg width="20" height="18" viewBox="0 0 20 18" fill="none" xmlns="http://www.w3.org/2000/svg">
<path d="M14.0231 6.34843H19.0151L15.8341 3.16543C14.81 2.1413 13.5343 1.40482 12.1353 1.03003C10.7363 0.655246 9.26332 0.655355 7.86438 1.03035C6.46544 1.40535 5.18987 2.14202 4.16591 3.1663C3.14194 4.19058 2.40567 5.46637 2.03111 6.86543M0.985107 16.6444V11.6524M0.985107 11.6524H5.97711M0.985107 11.6524L4.16511 14.8354C5.18922 15.8596 6.4649 16.596 7.8639 16.9708C9.26289 17.3456 10.7359 17.3455 12.1348 16.9705C13.5338 16.5955 14.8093 15.8588 15.8333 14.8346C16.8573 13.8103 17.5935 12.5345 17.9681 11.1354M19.0151 1.35643V6.34643" stroke="white" stroke-width="1.5" stroke-linecap="round" stroke-linejoin="round"/>
</svg>
